<svg width="49" height="49" viewBox="0 0 49 49" fill="none" xmlns="http://www.w3.org/2000/svg">
<path opacity="0.9" d="M24.5703 16.0654C22.9455 16.0654 21.3571 16.5468 20.0061 17.4486C18.6551 18.3505 17.6021 19.6324 16.9803 21.1321C16.3585 22.6319 16.1958 24.2823 16.5128 25.8744C16.8298 27.4665 17.6122 28.929 18.7612 30.0769C19.9101 31.2246 21.3739 32.0063 22.9675 32.323C24.5613 32.6397 26.213 32.4772 27.7143 31.856C29.2155 31.2348 30.4985 30.1828 31.4012 28.8331C32.3041 27.4833 32.7858 25.8964 32.7858 24.2731C32.7884 23.1945 32.5778 22.126 32.1658 21.1291C31.7538 20.132 31.1489 19.2262 30.3855 18.4635C29.622 17.7008 28.7153 17.0963 27.7175 16.6848C26.7194 16.2733 25.65 16.0628 24.5703 16.0654ZM24.5703 29.6181C23.5122 29.6181 22.4778 29.3046 21.598 28.7172C20.7183 28.1301 20.0325 27.2953 19.6276 26.3186C19.2226 25.3419 19.1167 24.2673 19.3231 23.2303C19.5296 22.1935 20.0391 21.241 20.7872 20.4935C21.5354 19.7461 22.4888 19.237 23.5266 19.0308C24.5645 18.8246 25.6402 18.9304 26.6178 19.335C27.5954 19.7395 28.431 20.4247 29.0187 21.3035C29.6066 22.1825 29.9204 23.2159 29.9204 24.2731C29.9204 25.6906 29.3567 27.0503 28.3535 28.0526C27.3502 29.0549 25.9892 29.6181 24.5703 29.6181ZM35.05 15.7251C35.05 16.121 34.9326 16.5081 34.7124 16.8372C34.4922 17.1665 34.1792 17.4231 33.8131 17.5746C33.447 17.7261 33.0441 17.7657 32.6553 17.6885C32.2666 17.6112 31.9097 17.4206 31.6294 17.1406C31.3493 16.8606 31.1583 16.504 31.081 16.1156C31.0036 15.7273 31.0433 15.3248 31.195 14.959C31.3467 14.5932 31.6036 14.2805 31.933 14.0606C32.2626 13.8406 32.6499 13.7232 33.0463 13.7232C33.5777 13.7232 34.0874 13.9341 34.4631 14.3095C34.839 14.6849 35.05 15.1941 35.05 15.7251ZM40.4802 17.7269C40.5385 15.2383 39.6094 12.8275 37.8954 11.0206C36.0964 9.2864 33.6823 8.33605 31.1828 8.37817C28.5779 8.25806 20.5628 8.25806 17.9579 8.37817C15.4677 8.3243 13.0563 9.25201 11.2453 10.9606C9.5314 12.7675 8.60221 15.1782 8.66048 17.6669C8.54026 20.2693 8.54026 28.2768 8.66048 30.8793C8.60221 33.368 9.5314 35.7787 11.2453 37.5856C13.0563 39.2942 15.4677 40.2218 17.9579 40.168C20.6029 40.3281 28.5378 40.3281 31.1828 40.168C33.6738 40.2262 36.0868 39.298 37.8954 37.5856C39.6094 35.7787 40.5385 33.368 40.4802 30.8793C40.6005 28.2768 40.6005 20.2693 40.4802 17.6669V17.7269ZM37.0738 33.7419C36.8017 34.4306 36.3911 35.0558 35.8672 35.5793C35.3432 36.1028 34.7174 36.5129 34.0281 36.7848C30.9175 37.4132 27.7375 37.6286 24.5703 37.4254C21.41 37.6288 18.2365 37.4134 15.1326 36.7848C14.4435 36.5129 13.8175 36.1028 13.2936 35.5793C12.7697 35.0558 12.359 34.4306 12.0869 33.7419C11.2453 31.62 11.4257 26.6153 11.4257 24.2931C11.4257 21.9709 11.2453 16.9462 12.0869 14.8442C12.3513 14.1489 12.7591 13.5169 13.2838 12.9893C13.8085 12.4616 14.4384 12.0501 15.1326 11.7814C18.2365 11.1527 21.41 10.9373 24.5703 11.1408C27.7375 10.9377 30.9175 11.1531 34.0281 11.7814C34.7174 12.0532 35.3432 12.4635 35.8672 12.9869C36.3911 13.5103 36.8017 14.1357 37.0738 14.8242C37.9154 16.9462 37.715 21.9509 37.715 24.2731C37.715 26.5952 37.9154 31.62 37.0738 33.7219V33.7419Z" fill="black"/>
</svg>
