<svg width="49" height="49" viewBox="0 0 49 49" fill="none" xmlns="http://www.w3.org/2000/svg">
<path d="M15.4324 18.6982H8.25488V40.2878H15.4324V18.6982Z" fill="black"/>
<path d="M11.8921 8.28809C9.43651 8.28809 7.83203 9.90252 7.83203 12.0185C7.83203 14.0901 9.38772 15.7491 11.7972 15.7491H11.8435C14.3462 15.7491 15.904 14.0901 15.904 12.0185C15.8575 9.90252 14.3464 8.28809 11.8921 8.28809Z" fill="black"/>
<path d="M33.0464 18.1904C29.2393 18.1904 27.5339 20.2842 26.579 21.7548V18.6981H19.4033C19.4985 20.7232 19.4033 40.2876 19.4033 40.2876H26.5789V28.2305C26.5789 27.5851 26.6253 26.9399 26.8155 26.4787C27.3334 25.1898 28.5149 23.8548 30.4974 23.8548C33.0929 23.8548 34.1327 25.8353 34.1327 28.7363V40.2876H41.3086V27.9069C41.3086 21.2754 37.768 18.1904 33.0464 18.1904Z" fill="black"/>
</svg>
